<?xml version="1.0" encoding="utf-8"?>
<!-- Generator: Adobe Illustrator 26.0.2, SVG Export Plug-In . SVG Version: 6.00 Build 0)  -->
<svg version="1.1" id="Capa_1" xmlns="http://www.w3.org/2000/svg" xmlns:xlink="http://www.w3.org/1999/xlink" x="0px" y="0px"
	 viewBox="0 0 1821.7 477.3" style="enable-background:new 0 0 1821.7 477.3;" xml:space="preserve">
<style type="text/css">
	.st0{clip-path:url(#SVGID_00000006701569048819011970000012190633631813913534_);fill:#EEEBDA;}
	.st1{clip-path:url(#SVGID_00000137106144483860009960000011421358670193982871_);fill:#EEEBDA;}
</style>
<g>
	<g>
		<g>
			<defs>
				<rect id="SVGID_1_" width="1821.7" height="477.3"/>
			</defs>
			<clipPath id="SVGID_00000116233079801741564250000007668382941296510909_">
				<use xlink:href="#SVGID_1_"  style="overflow:visible;"/>
			</clipPath>
			<path style="clip-path:url(#SVGID_00000116233079801741564250000007668382941296510909_);fill:#EEEBDA;" d="M1740.1,414.4
				c15.7-21.5,34.8-42,60.7-49.7c12.7-3.9,21-6.6,21-16.6c0-6.6-3.3-12.2-13.2-12.2c-19.6,0-50.8,32.8-66.3,55.2l-30.9,44.2h-1.1
				l27.6-59.6c3.9-8,6.6-17.1,6.6-24.3c0-9.4-7.4-15.5-17.7-15.5c-23.5,0-37.8,17.4-53,38.7l7.7,6.6c9.9-14.4,24.8-30.9,34.2-30.9
				c3.3,0,5.5,2.2,5.5,5.5c0,3.6-1.9,9.1-4.4,14.3l-37.5,82.8c-1.9,4.1-4.4,9.9-4.4,14.4c0,6.1,3.9,9.9,9.9,9.9
				c5.8,0,10.8-4.1,16.6-11L1740.1,414.4z M1615.6,348.1c15.2,0,22.1,7.2,22.1,18.8c0,21-29.8,40.3-85,43.1
				C1558.7,378.2,1586.6,348.1,1615.6,348.1 M1579.1,477.3c28.7,0,49.1-10.8,71.8-37.5l-8.8-6.6c-18.2,20.2-35.9,30.9-57.4,30.9
				c-22.4,0-33.1-16.8-33.1-42V421c53.3-1.4,109.3-18,109.3-55.2c0-21.5-21.3-29.8-42-29.8c-49.7,0-90.6,40.3-90.6,88.3
				C1528.3,456.9,1545.1,477.3,1579.1,477.3 M1446.6,339.3l-5.5,13.2h29l-36.7,81.7c-3.9,8.6-6.6,15.7-6.6,23.2
				c0,11.3,8,19.9,22.1,19.9c20.2,0,34.8-12.7,56.3-40.9l-7.7-6.6c-19.3,24.6-29.8,33.1-39.8,33.1c-5.8,0-7.7-3.3-7.7-7.7
				c0-4.7,1.9-10.2,3.3-13.2l40.3-89.5h35.9l5.5-13.2h-35.6l20.4-45.3c1.4-2.8,1.9-5.5,1.9-7.7c0-6.1-5-8.8-9.9-8.8
				c-6.6,0-10.5,4.4-14.4,14.3l-21.5,47.5H1446.6L1446.6,339.3z M1351.6,339.3l-5.5,13.2h29l-36.7,81.7c-3.9,8.6-6.6,15.7-6.6,23.2
				c0,11.3,8,19.9,22.1,19.9c20.2,0,34.8-12.7,56.3-40.9l-7.7-6.6c-19.3,24.6-29.8,33.1-39.8,33.1c-5.8,0-7.7-3.3-7.7-7.7
				c0-4.7,1.9-10.2,3.3-13.2l40.3-89.5h43.6l5.5-13.2h-43.3l20.4-45.3c1.4-2.8,1.9-5.5,1.9-7.7c0-6.1-5-8.8-9.9-8.8
				c-6.6,0-10.5,4.4-14.4,14.3l-21.5,47.5H1351.6L1351.6,339.3z M1279,348.1c15.2,0,22.1,7.2,22.1,18.8c0,21-29.8,40.3-85,43.1
				C1222.2,378.2,1250,348.1,1279,348.1 M1242.6,477.3c28.7,0,49.1-10.8,71.8-37.5l-8.8-6.6c-18.2,20.2-35.9,30.9-57.4,30.9
				c-22.4,0-33.1-16.8-33.1-42V421c53.3-1.4,109.3-18,109.3-55.2c0-21.5-21.3-29.8-42-29.8c-49.7,0-90.6,40.3-90.6,88.3
				C1191.8,456.9,1208.6,477.3,1242.6,477.3 M1131.3,291.8c24,0,38.7,12.2,38.7,32.3c0,22.1-24.6,43.9-61.8,43.9h-30.9l30.6-73.2
				C1115.3,293.2,1126.1,291.8,1131.3,291.8 M1102.6,380.2c27.6,0,42,17.7,42,35.3c0,31.8-24.3,47.5-62.9,47.5
				c-13.8,0-30.9-1.9-42.2-3.9l32.8-79h30.3V380.2z M1091.6,474c51.1,0,76.2-24.6,76.2-56.3c0-24.3-15.7-36.4-42.2-42v-1.1
				c32.6,0,67.6-15.7,67.6-49.7c0-27.6-21.3-44.2-56.3-44.2h-74l-3.3,12.2l23.2,3.3l-67.4,162.3l-24.3,3.3l-3.3,12.2H1091.6
				L1091.6,474z M888.1,417.4c19.9,3,30.4,10.2,30.4,23.5c0,14.1-10.5,23.2-29,23.2c-21.5,0-41.4-17.1-54.1-33.1h-11.3l11.6,43.1
				h8.8l4.7-13.2c11.6,10.2,25.4,16.6,41.1,16.6c30.6,0,48-16,48-38.7c0-22.9-16.6-36.2-44.5-40.6l-24.6-3.9
				c-16.3-2.5-26-11.6-26-24c0-12.2,8.8-21,26.2-21c19.6,0,36.7,13.2,50.8,30.9h7.7l-9.1-40.9h-7.7l-3.3,13.2
				c-7.7-7.5-22.4-16.6-39.2-16.6c-29.5,0-44.7,15.7-44.7,35.3c0,23.5,17.7,38.7,39.5,42.2L888.1,417.4z M733,461.9
				c-29,0-46.4-21-46.4-55.2c0-26.8,10.8-55.2,45.3-55.2c14.4,0,28.7,4.7,39.5,12.2v86.1C763.9,454.4,750.9,461.9,733,461.9
				 M770.2,476.2l42.8-5.5v-11l-20.7-3.3V256.5h-6.1l-38.9,19.9v9.9h24v65.2h-1.1c-11-8.6-25.7-15.5-41.4-15.5
				c-43.3,0-65.7,31.8-65.7,72.9c0,41.4,24.8,68.5,64.3,68.5c20.4,0,34-9.1,43.9-16.6L770.2,476.2z M500.3,474h62.6v-11l-21-3.3V368
				c16.6-9.1,33.4-13.2,45.5-13.2c18.5,0,25.4,5.2,25.4,22.1v82.8l-20.7,3.3v11h62.4v-11l-20.4-3.3v-87.2c0-23.5-13-36.4-37-36.4
				c-18.8,0-35.6,6.6-53.8,18.8h-1.4v-15.5h-6l-35.6,19.9v8.8H521v91.7l-20.7,3.3V474L500.3,474z M444.2,476.2l41.7-5.5v-11
				l-20.7-3.3V336l-40.6,5.5v11l19.6,3.3v89.4c-16.3,9.1-32.6,13.2-44.5,13.2c-17.4,0-24.3-5.2-24.3-22.1V336l-40.6,5.5v11l19.6,3.3
				v85c0,23.5,12.4,36.4,35.6,36.4c18.5,0,34.8-6.6,52.7-18.8h1.4L444.2,476.2L444.2,476.2z M256.2,477.3c42,0,69.8-28.2,69.8-69.6
				c0-41.4-27.9-71.8-69.8-71.8s-69.9,30.4-69.9,71.8C186.4,449.2,214.3,477.3,256.2,477.3 M256.2,464.1
				c-28.4,0-46.7-20.2-46.7-57.4c0-37.3,18.2-57.4,46.7-57.4s46.7,20.2,46.7,57.4C302.9,443.9,284.7,464.1,256.2,464.1 M89.8,389
				c33.4,6.3,53.8,13.2,53.8,38.7c0,22.1-16,34.2-45,34.2c-28.2,0-57.7-17.4-77.8-38.7H1.4L21,474h8.6l6.9-19.9
				c12.7,12.2,38.1,23.2,62.1,23.2c43.1,0,70.9-16.6,70.9-54.1c0-37.3-33.4-49.4-74.3-57.4L72,361.4c-25.4-5-47.5-14.9-47.5-36.4
				c0-20.2,18.8-32,43.1-32c27.6,0,56,14.4,74.3,38.7h18.2l-22.9-50.8h-11.3l-4.4,14.4c-13.8-11-32.3-17.7-53.8-17.7
				c-38.9,0-67.6,18.8-67.6,50.8c0,35.1,31.2,49.4,66.5,56.3L89.8,389z"/>
		</g>
	</g>
	<g>
		<g>
			<defs>
				<rect id="SVGID_00000103985009928144754600000005980301050233324434_" width="1821.7" height="477.3"/>
			</defs>
			<clipPath id="SVGID_00000000202895492613016610000005688716644062656173_">
				<use xlink:href="#SVGID_00000103985009928144754600000005980301050233324434_"  style="overflow:visible;"/>
			</clipPath>
			<path style="clip-path:url(#SVGID_00000000202895492613016610000005688716644062656173_);fill:#EEEBDA;" d="M1413.1,161.2
				c15.7-21.5,34.8-42,60.7-49.7c12.7-3.9,21-6.6,21-16.6c0-6.6-3.3-12.1-13.2-12.1c-19.6,0-50.8,32.9-66.3,55.2l-30.9,44.2h-1.1
				l27.6-59.6c3.9-8,6.6-17.1,6.6-24.3c0-9.4-7.4-15.5-17.7-15.5c-23.5,0-37.8,17.4-53,38.6l7.7,6.6c9.9-14.4,24.8-30.9,34.2-30.9
				c3.3,0,5.5,2.2,5.5,5.5c0,3.6-1.9,9.1-4.4,14.4l-37.5,82.8c-1.9,4.1-4.4,9.9-4.4,14.4c0,6.1,3.9,9.9,9.9,9.9
				c5.8,0,10.8-4.1,16.6-11L1413.1,161.2z M1288.6,95c15.2,0,22.1,7.2,22.1,18.8c0,21-29.8,40.3-85,43.1
				C1231.7,125.1,1259.6,95,1288.6,95 M1252.1,224.2c28.7,0,49.1-10.8,71.8-37.5l-8.8-6.6c-18.2,20.1-35.9,30.9-57.4,30.9
				c-22.4,0-33.1-16.8-33.1-42v-1.1c53.3-1.4,109.3-18,109.3-55.2c0-21.5-21.3-29.8-42-29.8c-49.7,0-90.6,40.3-90.6,88.3
				C1201.3,203.7,1218.2,224.2,1252.1,224.2 M1014.7,199.9c-1.9,4.1-4.4,9.9-4.4,14.3c0,6.1,3.9,9.9,9.9,9.9c5.8,0,10.8-4.1,16.6-11
				l48.6-60.7c27.3-34.8,47.5-51.9,61.8-51.9c4.4,0,6.6,2.2,6.6,5.5c0,4.1-1.9,8.6-4.4,13.2l-33.1,61.8c-4.4,8.3-7.7,15.7-7.7,23.2
				c0,11.3,8,19.9,22.1,19.9c20.2,0,34.8-12.7,56.3-40.9l-7.7-6.6c-19.3,24.6-29.8,33.1-39.8,33.1c-5.5,0-7.7-2.8-7.7-6.6
				c0-3.6,1.1-8,3.3-12.1l36.4-67.4c3.6-6.9,6.6-15.2,6.6-22.1c0-10.8-6.6-18.8-21-18.8c-25.9,0-56.9,32.6-78.4,59.6l-32,39.8h-1.1
				l81.7-182.2l-54.1,3.3l-2.2,9.9l25.4,4.4L1014.7,199.9z M942.7,86.1l-5.5,13.2h29L929.5,181c-3.9,8.6-6.6,15.7-6.6,23.2
				c0,11.3,8,19.9,22.1,19.9c20.2,0,34.8-12.7,56.3-40.9l-7.7-6.6c-19.3,24.6-29.8,33.1-39.8,33.1c-5.8,0-7.7-3.3-7.7-7.7
				c0-4.7,1.9-10.2,3.3-13.2l40.3-89.4h35.9l5.5-13.2h-35.6l20.4-45.3c1.4-2.8,1.9-5.5,1.9-7.7c0-6.1-5-8.8-9.9-8.8
				c-6.6,0-10.5,4.4-14.3,14.4l-21.5,47.5L942.7,86.1L942.7,86.1z M864.5,95c15.2,0,22.1,7.2,22.1,18.8c0,21-29.8,40.3-85,43.1
				C807.7,125.1,835.5,95,864.5,95 M828.1,224.2c28.7,0,49.1-10.8,71.8-37.5l-8.8-6.6c-18.2,20.1-35.9,30.9-57.4,30.9
				c-22.4,0-33.1-16.8-33.1-42v-1.1c53.3-1.4,109.3-18,109.3-55.2c0-21.5-21.3-29.8-42-29.8c-49.7,0-90.5,40.3-90.5,88.3
				C777.3,203.7,794.1,224.2,828.1,224.2 M683.7,237.4c17.7,3.9,26.5,8.6,26.5,19.9c0,16.3-24,24.3-54.1,24.3
				c-29,0-50.8-7.5-50.8-25.4c0-12.2,14.4-23.7,32.8-28.7L683.7,237.4z M684.8,177.8c-19.3,0-28.7-11.9-28.7-28.7
				c0-30.9,19.6-55.2,46.4-55.2c20.2,0,29.8,11.9,29.8,28.7C732.3,153.5,712.1,177.8,684.8,177.8 M653.9,292.6
				c45,0,79.5-13,79.5-40.9c0-17.1-16-26.8-39.8-32l-44.2-9.9c-9.9-2.5-14.4-5.5-14.4-11c0-7.2,8-14.4,17.7-18c7.7,5,18.5,8,32,8
				c37.3,0,69.6-25.1,69.6-62.9c0-6.6-1.7-13.5-4.7-19.6c4.7-4.1,8.8-5.8,13.5-5.8c9.1,0,9.9,5.5,17.7,5.5c5.8,0,11-5.2,11-12.1
				c0-7.2-5.2-12.1-15.5-12.1c-12.4,0-22.9,6.9-32.3,16.8c-8.3-9.4-21.8-15.7-41.7-15.7c-36.7,0-68.5,25.1-68.5,62.9
				c0,11.3,3.9,22.4,12.7,30.4c-21.5,6.9-34.8,15.7-34.8,28.2c0,9.4,8.8,17.1,16.6,20.4v0.5c-25.7,4.4-45.3,13.5-45.3,33.1
				C583.2,278.5,611.9,292.6,653.9,292.6 M519.2,224.2c48,0,88.3-47.2,88.3-90.5c0-34-17.9-50.8-54.1-50.8
				c-47.5,0-87.2,47.2-87.2,90.5C466.2,207.3,483.8,224.2,519.2,224.2 M517,213.1c-15.7,0-28.7-9.9-28.7-28.7
				c0-35.3,30.1-90.6,67.4-90.6c16.3,0,29.8,9.9,29.8,28.7C585.4,157.9,554.8,213.1,517,213.1 M478.6,40.9
				c16.6,0,31.5,5.5,38.7,24.3h12.2l-11-37.5H363.7l-26.5,37.5h12.1c14.4-17.7,30.9-24.3,50.8-24.3c8.3,0,21.3,1.1,28.2,3.3
				l-66.8,161.2l-27.6,3.3l-3.3,12.1H409l3.3-12.1l-26.5-3.3l66.8-161.2C461.2,42.2,470.3,40.9,478.6,40.9"/>
		</g>
	</g>
</g>
</svg>
